<svg width="608" height="608" viewBox="0 0 608 608" fill="none" xmlns="http://www.w3.org/2000/svg">
<path d="M161.487 446.513C250.136 535.162 393.864 535.162 482.513 446.513L428.013 392.013C369.464 450.563 274.536 450.563 215.987 392.013C157.437 333.464 157.437 238.536 215.987 179.987L161.487 125.487C72.8378 214.136 72.8378 357.864 161.487 446.513Z" fill="#8A8A8A"/>
<path d="M426.864 392.682C484.929 334.617 484.929 240.474 426.864 182.409L368.002 241.271C393.559 266.828 393.559 308.264 368.002 333.82C342.445 359.377 301.009 359.377 275.452 333.82L216.591 392.682C274.656 450.747 368.798 450.747 426.864 392.682Z" fill="white"/>
<circle cx="322" cy="286" r="257" stroke="white" stroke-width="58"/>
</svg>
